<?xml version="1.0" encoding="UTF-8"?>
<svg version="1.1" xmlns="http://www.w3.org/2000/svg" width="512" height="512">
<path d="M0 0 C1.17977921 0.52546921 1.17977921 0.52546921 2.38339233 1.06155396 C4.95910652 2.21381818 7.5221261 3.3918322 10.0859375 4.5703125 C11.91068794 5.39233728 13.7362244 6.21261922 15.5625 7.03125 C20.28407599 9.15248404 24.99587391 11.29457621 29.70568848 13.44177246 C34.00108963 15.39602679 38.30492092 17.33141108 42.609375 19.265625 C44.25506212 20.00533428 45.90073275 20.74508024 47.54638672 21.48486328 C48.76162018 22.03113373 48.76162018 22.03113373 50.00140381 22.58843994 C52.47990819 23.70384995 54.95715347 24.82201344 57.43408203 25.94091797 C70.09148651 31.65534311 82.79811364 37.25212654 95.52261353 42.8152771 C109.27690824 48.83076119 122.98026065 54.95265287 136.65664673 61.14312744 C145.22905772 65.02283742 153.80905197 68.87447431 162.4609375 72.57421875 C163.16442825 72.87558243 163.86791901 73.17694611 164.59272766 73.48744202 C167.85415213 74.88264807 171.11915612 76.26820226 174.39135742 77.63793945 C175.52162354 78.11835693 176.65188965 78.59877441 177.81640625 79.09375 C179.28049927 79.70742432 179.28049927 79.70742432 180.77416992 80.33349609 C184.32235892 82.13193301 187.64422629 84.06189008 189.4609375 87.6953125 C189.56378847 89.22736886 189.6047215 90.76378388 189.61483765 92.29925537 C189.62343811 93.26937561 189.63203857 94.23949585 189.64089966 95.23901367 C189.64728958 96.84111694 189.64728958 96.84111694 189.65380859 98.47558594 C189.66198608 99.59765442 189.67016357 100.7197229 189.67858887 101.87579346 C189.70347277 105.60208598 189.7199665 109.32834034 189.734375 113.0546875 C189.73969868 114.32514168 189.74502235 115.59559586 189.75050735 116.90454865 C189.77174332 122.24378292 189.79087289 127.58300379 189.80212975 132.92226791 C189.81836129 140.57056242 189.85151732 148.21834827 189.90853059 155.86645103 C189.95193281 161.89459358 189.96787813 167.92250494 189.97426224 173.95081329 C189.98098736 176.5136909 189.99624184 179.07656075 190.02015305 181.63933563 C190.05170616 185.22577206 190.0518553 188.81092264 190.04443359 192.39746094 C190.06083893 193.45743286 190.07724426 194.51740479 190.09414673 195.60949707 C190.02601739 203.64727391 190.02601739 203.64727391 187.10025024 207.34674072 C184.39911882 209.75032137 183.02538223 210.49162994 179.4609375 210.6953125 C179.38051159 214.78587445 179.36085872 218.8721217 179.39379883 222.96337891 C179.39685199 224.35015542 179.38424612 225.73706929 179.35473633 227.12353516 C179.20509551 234.65999099 179.41763149 240.43732888 184.73828125 246.25390625 C186.30314858 247.74425609 187.87644381 249.22584588 189.4609375 250.6953125 C206.63689801 272.14314755 213.75503794 300.85611625 211.25439453 327.93164062 C208.55194921 351.45159955 198.8476007 371.88293114 183.4609375 389.6953125 C182.81640625 390.44296875 182.171875 391.190625 181.5078125 391.9609375 C167.02580594 407.45038799 147.7862107 416.75404093 127.4609375 421.6953125 C126.01074219 422.06462891 126.01074219 422.06462891 124.53125 422.44140625 C98.14728089 427.98586353 69.08815296 422.01716275 46.4609375 407.6953125 C41.64660931 404.27831371 36.81665133 400.8159071 32.42578125 396.86328125 C30.52006834 395.48247581 30.52006834 395.48247581 28.22265625 395.82421875 C18.39473644 398.78855921 18.39473644 398.78855921 9.4609375 403.6953125 C8.06443803 406.4413344 7.8607261 408.35216215 7.69921875 411.40234375 C7.4609375 413.6953125 7.4609375 413.6953125 5.0234375 416.5078125 C-1.89464532 421.24390832 -9.03065055 424.61004855 -17.5390625 423.6953125 C-20.37314405 422.86472329 -22.96841384 421.66353375 -25.62890625 420.390625 C-26.39332535 420.04031219 -27.15774445 419.68999939 -27.94532776 419.32907104 C-29.59663576 418.57036 -31.24482564 417.80483259 -32.89013672 417.03320312 C-36.44059673 415.36823377 -40.00595049 413.73633192 -43.57058716 412.10198975 C-45.43422289 411.2471245 -47.2970682 410.39053417 -49.15914917 409.5322876 C-57.89159186 405.51179738 -66.68670197 401.6425168 -75.49954224 397.80218506 C-90.72293506 391.16693351 -105.88886461 384.4121825 -121.02175903 377.57333374 C-132.94093391 372.18880257 -144.89283552 366.8853275 -156.87637329 361.64562988 C-161.96537563 359.4187322 -167.0501888 357.18228339 -172.13502502 354.94589233 C-176.24654058 353.13836302 -180.3603355 351.33644176 -184.47949219 349.54638672 C-188.3846793 347.84860159 -192.28198253 346.1338613 -196.17410278 344.40634155 C-197.60742612 343.77373955 -199.04347955 343.14728169 -200.48239136 342.52749634 C-202.45292168 341.67777471 -204.41256209 340.80663982 -206.37109375 339.9296875 C-208.02202026 339.20604004 -208.02202026 339.20604004 -209.70629883 338.46777344 C-213.278768 336.23247858 -214.56136775 334.43257947 -216.5390625 330.6953125 C-217.10391302 327.41125434 -217.07511086 324.18401469 -217.04026794 320.85813904 C-217.04856954 319.37953678 -217.04856954 319.37953678 -217.05703884 317.87106377 C-217.07064361 314.57060512 -217.05567661 311.27090288 -217.04077148 307.97045898 C-217.04455468 305.60332925 -217.05005473 303.23620173 -217.05714417 300.86907959 C-217.07111502 294.4415242 -217.05991763 288.01423601 -217.04343295 281.58669543 C-217.02931143 275.54518037 -217.03519262 269.50366914 -217.03856266 263.46214391 C-217.04443905 251.49172674 -217.0302778 239.52141482 -217.00561523 227.55102539 C-216.98168971 215.93705298 -216.97461333 204.32322115 -216.98510742 192.70922852 C-216.99651735 180.05902214 -216.9984462 167.40888075 -216.98400933 154.75867516 C-216.9824835 153.40976052 -216.98096314 152.06084588 -216.97944832 150.71193123 C-216.9786905 150.04825414 -216.97793269 149.38457705 -216.97715191 148.70078854 C-216.97241007 144.02477603 -216.97436848 139.34880194 -216.97851372 134.67278862 C-216.98327989 128.37972788 -216.97319651 122.08686214 -216.95155907 115.7938385 C-216.94598639 113.48192057 -216.94553028 111.16998393 -216.95051193 108.85806465 C-216.95645115 105.7069929 -216.94398535 102.55652005 -216.92674255 99.40550232 C-216.93575762 98.0269099 -216.93575762 98.0269099 -216.94495481 96.62046713 C-216.89711245 91.82625788 -216.68482466 88.56866648 -213.5390625 84.6953125 C-209.17262796 81.3016734 -204.43664634 79.15764755 -199.390625 77 C-198.59844574 76.65534698 -197.80626648 76.31069397 -196.99008179 75.95559692 C-195.27927659 75.21177488 -193.56737372 74.47047339 -191.85449219 73.73144531 C-187.21528001 71.729259 -182.58459196 69.70752261 -177.953125 67.6875 C-176.99988342 67.2722406 -176.04664185 66.8569812 -175.06451416 66.42913818 C-165.51964189 62.26465763 -156.02690937 57.9877313 -146.5390625 53.6953125 C-133.07576172 47.60984357 -119.57610315 41.61489322 -106.0390625 35.6953125 C-93.06828482 30.0228985 -80.12626736 24.29211362 -67.22076416 18.47259521 C-64.69474631 17.33414142 -62.16758808 16.19825553 -59.64013672 15.06298828 C-52.85381823 12.01206179 -46.07123442 8.95671238 -39.33010864 5.80691528 C-37.43869763 4.92450975 -35.54401972 4.04958774 -33.64794922 3.17724609 C-31.41837532 2.14886099 -29.19529117 1.10621174 -26.98095703 0.04541016 C-26.00239746 -0.4027002 -25.02383789 -0.85081055 -24.015625 -1.3125 C-22.7793335 -1.89475342 -22.7793335 -1.89475342 -21.51806641 -2.48876953 C-13.7198462 -4.62462037 -7.17485226 -3.36239132 0 0 Z " fill="#FE9400" transform="translate(258.5390625,35.3046875)"/>
<path d="M0 0 C1.17977921 0.52546921 1.17977921 0.52546921 2.38339233 1.06155396 C4.95910652 2.21381818 7.5221261 3.3918322 10.0859375 4.5703125 C11.91068794 5.39233728 13.7362244 6.21261922 15.5625 7.03125 C20.28407599 9.15248404 24.99587391 11.29457621 29.70568848 13.44177246 C34.00108963 15.39602679 38.30492092 17.33141108 42.609375 19.265625 C44.25506212 20.00533428 45.90073275 20.74508024 47.54638672 21.48486328 C48.76162018 22.03113373 48.76162018 22.03113373 50.00140381 22.58843994 C52.47990819 23.70384995 54.95715347 24.82201344 57.43408203 25.94091797 C70.09148651 31.65534311 82.79811364 37.25212654 95.52261353 42.8152771 C109.27690824 48.83076119 122.98026065 54.95265287 136.65664673 61.14312744 C145.22905772 65.02283742 153.80905197 68.87447431 162.4609375 72.57421875 C163.16442825 72.87558243 163.86791901 73.17694611 164.59272766 73.48744202 C167.85415213 74.88264807 171.11915612 76.26820226 174.39135742 77.63793945 C175.52162354 78.11835693 176.65188965 78.59877441 177.81640625 79.09375 C179.28049927 79.70742432 179.28049927 79.70742432 180.77416992 80.33349609 C184.32235892 82.13193301 187.64422629 84.06189008 189.4609375 87.6953125 C189.56378847 89.22736886 189.6047215 90.76378388 189.61483765 92.29925537 C189.62343811 93.26937561 189.63203857 94.23949585 189.64089966 95.23901367 C189.64728958 96.84111694 189.64728958 96.84111694 189.65380859 98.47558594 C189.66198608 99.59765442 189.67016357 100.7197229 189.67858887 101.87579346 C189.70347277 105.60208598 189.7199665 109.32834034 189.734375 113.0546875 C189.73969868 114.32514168 189.74502235 115.59559586 189.75050735 116.90454865 C189.77174332 122.24378292 189.79087289 127.58300379 189.80212975 132.92226791 C189.81836129 140.57056242 189.85151732 148.21834827 189.90853059 155.86645103 C189.95193281 161.89459358 189.96787813 167.92250494 189.97426224 173.95081329 C189.98098736 176.5136909 189.99624184 179.07656075 190.02015305 181.63933563 C190.05170616 185.22577206 190.0518553 188.81092264 190.04443359 192.39746094 C190.06083893 193.45743286 190.07724426 194.51740479 190.09414673 195.60949707 C190.02602404 203.64649031 190.02602404 203.64649031 187.07681274 207.33892822 C184.29086772 209.84851161 183.17609553 210.6953125 179.4609375 210.6953125 C174.96565673 209.68616784 172.42812291 208.21197669 169.4609375 204.6953125 C167.79118323 201.35580397 168.33210744 197.60240764 168.34741211 193.93115234 C168.34726608 193.02377823 168.34712006 192.11640411 168.3469696 191.18153381 C168.34766799 188.17308182 168.35545696 185.16469122 168.36328125 182.15625 C168.36514569 180.07402582 168.36656947 177.99180119 168.36756897 175.90957642 C168.37139209 170.42194412 168.38122064 164.93433817 168.39227295 159.44671631 C168.40249148 153.84989783 168.40706754 148.25307511 168.41210938 142.65625 C168.42284307 131.66925924 168.43991705 120.68228806 168.4609375 109.6953125 C152.74391591 116.47353834 137.0357228 123.26138009 121.45019531 130.33813477 C106.15264993 137.28109156 90.79711283 144.08423562 75.40429688 150.81289673 C63.30096456 156.10564858 51.23600152 161.47687143 39.19866943 166.91802979 C14.37210859 178.13552595 14.37210859 178.13552595 3.14541626 183.02911377 C1.39612662 183.79399467 -0.34853979 184.56942216 -2.09301758 185.34521484 C-3.12966553 185.7933252 -4.16631348 186.24143555 -5.234375 186.703125 C-6.12141113 187.09129395 -7.00844727 187.47946289 -7.92236328 187.87939453 C-14.64948595 189.97699147 -19.304273 187.83005148 -25.38671875 185.0234375 C-26.25401108 184.63420105 -27.12130341 184.2449646 -28.01487732 183.84393311 C-30.88182025 182.55457603 -33.74150038 181.24985248 -36.6015625 179.9453125 C-38.62446805 179.03267416 -40.64791511 178.12123525 -42.671875 177.2109375 C-46.87858273 175.31780116 -51.08290656 173.41951009 -55.28564453 171.51757812 C-63.9272885 167.61146766 -72.59666567 163.76816927 -81.26638794 159.92489624 C-85.93931766 157.85261611 -90.61019222 155.77571402 -95.28125 153.69921875 C-96.20915848 153.28682449 -97.13706696 152.87443024 -98.09309387 152.44953918 C-103.73670839 149.9413171 -109.37984522 147.43202316 -115.02264404 144.92196655 C-118.82674607 143.22985856 -122.63102017 141.53813761 -126.43530273 139.84643555 C-128.17024954 139.07481342 -129.90512136 138.30302267 -131.63989258 137.53100586 C-152.58715748 128.20908023 -173.56717308 118.96196131 -194.5390625 109.6953125 C-194.5390625 179.3253125 -194.5390625 248.9553125 -194.5390625 320.6953125 C-192.5590625 321.3553125 -190.5790625 322.0153125 -188.5390625 322.6953125 C-187.16374783 323.25472809 -185.79678187 323.83533455 -184.44116211 324.44091797 C-183.68411484 324.77743378 -182.92706757 325.11394958 -182.14707947 325.46066284 C-181.33670731 325.8242691 -180.52633514 326.18787537 -179.69140625 326.5625 C-178.82411392 326.94890656 -177.95682159 327.33531311 -177.06324768 327.73342896 C-174.19986838 329.00982732 -171.33823887 330.29010131 -168.4765625 331.5703125 C-166.45325706 332.47295233 -164.42981726 333.37529104 -162.40625 334.27734375 C-158.20113786 336.15215237 -153.99660778 338.02825749 -149.79248047 339.90527344 C-141.13644234 343.76877367 -132.47341217 347.61651562 -123.81036377 351.46426392 C-120.08297917 353.12001733 -116.35600544 354.77669448 -112.62902832 356.43336487 C-105.06075563 359.79751151 -97.49204631 363.16067217 -89.92251587 366.52198792 C-87.0478226 367.79862568 -84.17332492 369.07570313 -81.29882812 370.3527832 C-77.53674737 372.02402017 -73.77363343 373.69289939 -70.00976562 375.36010742 C-61.71553543 379.0372554 -53.43086679 382.73157147 -45.18223572 386.51011658 C-41.64185003 388.13188258 -38.09751398 389.74492116 -34.55319214 391.35806274 C-32.89280353 392.11738373 -31.23464312 392.88159834 -29.57888794 393.65097046 C-27.31044495 394.70502298 -25.03517107 395.74272904 -22.7578125 396.77734375 C-21.76423988 397.24752426 -21.76423988 397.24752426 -20.75059509 397.72720337 C-16.94858125 399.43219101 -14.52670815 400.07630947 -10.5390625 398.6953125 C-9.9409375 398.3446875 -9.3428125 397.9940625 -8.7265625 397.6328125 C-5.37171336 396.19502001 -2.09141102 396.10913968 1.4609375 396.6953125 C4.74075501 398.76302354 6.30839757 400.46650261 8.4609375 403.6953125 C9.00029904 408.39546303 9.02814185 410.64493407 6.7734375 414.8203125 C1.7604652 420.03380369 -6.13998719 423.44299893 -13.24902344 423.97070312 C-17.92363548 423.89379527 -21.46003835 422.38521382 -25.62890625 420.390625 C-26.39332535 420.04031219 -27.15774445 419.68999939 -27.94532776 419.32907104 C-29.59663576 418.57036 -31.24482564 417.80483259 -32.89013672 417.03320312 C-36.44059673 415.36823377 -40.00595049 413.73633192 -43.57058716 412.10198975 C-45.43422289 411.2471245 -47.2970682 410.39053417 -49.15914917 409.5322876 C-57.89159186 405.51179738 -66.68670197 401.6425168 -75.49954224 397.80218506 C-90.72293506 391.16693351 -105.88886461 384.4121825 -121.02175903 377.57333374 C-132.94093391 372.18880257 -144.89283552 366.8853275 -156.87637329 361.64562988 C-161.96537563 359.4187322 -167.0501888 357.18228339 -172.13502502 354.94589233 C-176.24654058 353.13836302 -180.3603355 351.33644176 -184.47949219 349.54638672 C-188.3846793 347.84860159 -192.28198253 346.1338613 -196.17410278 344.40634155 C-197.60742612 343.77373955 -199.04347955 343.14728169 -200.48239136 342.52749634 C-202.45292168 341.67777471 -204.41256209 340.80663982 -206.37109375 339.9296875 C-208.02202026 339.20604004 -208.02202026 339.20604004 -209.70629883 338.46777344 C-213.278768 336.23247858 -214.56136775 334.43257947 -216.5390625 330.6953125 C-217.10391302 327.41125434 -217.07511086 324.18401469 -217.04026794 320.85813904 C-217.04856954 319.37953678 -217.04856954 319.37953678 -217.05703884 317.87106377 C-217.07064361 314.57060512 -217.05567661 311.27090288 -217.04077148 307.97045898 C-217.04455468 305.60332925 -217.05005473 303.23620173 -217.05714417 300.86907959 C-217.07111502 294.4415242 -217.05991763 288.01423601 -217.04343295 281.58669543 C-217.02931143 275.54518037 -217.03519262 269.50366914 -217.03856266 263.46214391 C-217.04443905 251.49172674 -217.0302778 239.52141482 -217.00561523 227.55102539 C-216.98168971 215.93705298 -216.97461333 204.32322115 -216.98510742 192.70922852 C-216.99651735 180.05902214 -216.9984462 167.40888075 -216.98400933 154.75867516 C-216.9824835 153.40976052 -216.98096314 152.06084588 -216.97944832 150.71193123 C-216.9786905 150.04825414 -216.97793269 149.38457705 -216.97715191 148.70078854 C-216.97241007 144.02477603 -216.97436848 139.34880194 -216.97851372 134.67278862 C-216.98327989 128.37972788 -216.97319651 122.08686214 -216.95155907 115.7938385 C-216.94598639 113.48192057 -216.94553028 111.16998393 -216.95051193 108.85806465 C-216.95645115 105.7069929 -216.94398535 102.55652005 -216.92674255 99.40550232 C-216.93575762 98.0269099 -216.93575762 98.0269099 -216.94495481 96.62046713 C-216.89711245 91.82625788 -216.68482466 88.56866648 -213.5390625 84.6953125 C-209.17262796 81.3016734 -204.43664634 79.15764755 -199.390625 77 C-198.59844574 76.65534698 -197.80626648 76.31069397 -196.99008179 75.95559692 C-195.27927659 75.21177488 -193.56737372 74.47047339 -191.85449219 73.73144531 C-187.21528001 71.729259 -182.58459196 69.70752261 -177.953125 67.6875 C-176.99988342 67.2722406 -176.04664185 66.8569812 -175.06451416 66.42913818 C-165.51964189 62.26465763 -156.02690937 57.9877313 -146.5390625 53.6953125 C-133.07576172 47.60984357 -119.57610315 41.61489322 -106.0390625 35.6953125 C-93.06828482 30.0228985 -80.12626736 24.29211362 -67.22076416 18.47259521 C-64.69474631 17.33414142 -62.16758808 16.19825553 -59.64013672 15.06298828 C-52.85381823 12.01206179 -46.07123442 8.95671238 -39.33010864 5.80691528 C-37.43869763 4.92450975 -35.54401972 4.04958774 -33.64794922 3.17724609 C-31.41837532 2.14886099 -29.19529117 1.10621174 -26.98095703 0.04541016 C-26.00239746 -0.4027002 -25.02383789 -0.85081055 -24.015625 -1.3125 C-22.7793335 -1.89475342 -22.7793335 -1.89475342 -21.51806641 -2.48876953 C-13.7198462 -4.62462037 -7.17485226 -3.36239132 0 0 Z " fill="#010100" transform="translate(258.5390625,35.3046875)"/>
<path d="M0 0 C2.55373948 2.19120134 5.05125266 4.44023823 7.5534668 6.69018555 C8.56538086 7.50487305 9.57729492 8.31956055 10.61987305 9.15893555 C29.94247289 25.83143182 38.84378755 53.23639806 40.72192383 77.90258789 C42.32715505 107.38108097 31.65498568 134.57729893 12.5534668 156.69018555 C11.90893555 157.4378418 11.2644043 158.18549805 10.6003418 158.95581055 C-3.88166476 174.44526104 -23.12126 183.74891398 -43.4465332 188.69018555 C-44.89672852 189.05950195 -44.89672852 189.05950195 -46.3762207 189.4362793 C-72.76795199 194.98236776 -101.81019304 189.00578707 -124.4465332 174.69018555 C-128.53641769 171.80053843 -132.5135517 168.78923974 -136.4465332 165.69018555 C-137.74010742 164.70598633 -137.74010742 164.70598633 -139.05981445 163.7019043 C-143.16925789 160.23813446 -146.19489366 155.94325767 -149.4465332 151.69018555 C-150.11040039 150.85358398 -150.77426758 150.01698242 -151.45825195 149.1550293 C-160.54719568 137.31618904 -166.36355252 123.98061795 -170.4465332 109.69018555 C-170.7662207 108.6434668 -171.0859082 107.59674805 -171.4152832 106.51831055 C-178.26960987 80.49725561 -172.22853748 52.94708717 -159.3918457 29.88549805 C-156.12006572 24.51136947 -152.40817775 19.57173739 -148.4465332 14.69018555 C-147.74786133 13.82522461 -147.04918945 12.96026367 -146.3293457 12.0690918 C-110.38334205 -30.13125315 -42.44673034 -35.20474561 0 0 Z " fill="#00CE65" transform="translate(429.446533203125,268.309814453125)"/>
<path d="M0 0 C2.55373948 2.19120134 5.05125266 4.44023823 7.5534668 6.69018555 C8.56538086 7.50487305 9.57729492 8.31956055 10.61987305 9.15893555 C29.94247289 25.83143182 38.84378755 53.23639806 40.72192383 77.90258789 C42.32715505 107.38108097 31.65498568 134.57729893 12.5534668 156.69018555 C11.90893555 157.4378418 11.2644043 158.18549805 10.6003418 158.95581055 C-3.88166476 174.44526104 -23.12126 183.74891398 -43.4465332 188.69018555 C-44.89672852 189.05950195 -44.89672852 189.05950195 -46.3762207 189.4362793 C-72.76795199 194.98236776 -101.81019304 189.00578707 -124.4465332 174.69018555 C-128.53641769 171.80053843 -132.5135517 168.78923974 -136.4465332 165.69018555 C-137.74010742 164.70598633 -137.74010742 164.70598633 -139.05981445 163.7019043 C-143.16925789 160.23813446 -146.19489366 155.94325767 -149.4465332 151.69018555 C-150.11040039 150.85358398 -150.77426758 150.01698242 -151.45825195 149.1550293 C-160.54719568 137.31618904 -166.36355252 123.98061795 -170.4465332 109.69018555 C-170.7662207 108.6434668 -171.0859082 107.59674805 -171.4152832 106.51831055 C-178.26960987 80.49725561 -172.22853748 52.94708717 -159.3918457 29.88549805 C-156.12006572 24.51136947 -152.40817775 19.57173739 -148.4465332 14.69018555 C-147.74786133 13.82522461 -147.04918945 12.96026367 -146.3293457 12.0690918 C-110.38334205 -30.13125315 -42.44673034 -35.20474561 0 0 Z M-133.14526367 29.1862793 C-146.05103232 44.10176427 -152.06357972 63.57098319 -151.8840332 83.00268555 C-151.87500977 84.18258057 -151.86598633 85.36247559 -151.85668945 86.578125 C-151.5437176 102.41254465 -147.16090137 114.97442227 -139.4465332 128.69018555 C-138.99793945 129.51905273 -138.5493457 130.34791992 -138.0871582 131.2019043 C-127.20834043 149.36684385 -107.90916679 161.05749342 -88.1262207 167.11206055 C-64.01499109 172.31390017 -39.15921965 168.01431668 -18.4465332 154.69018555 C0.16373178 141.2379188 13.76122952 121.71103763 17.78198242 98.86938477 C21.44196483 74.63074328 15.69124111 51.48472584 1.35424805 31.6472168 C-11.88177306 14.90006967 -31.89708245 1.41893257 -53.4465332 -1.30981445 C-85.32609942 -3.67917296 -111.4066106 5.3491853 -133.14526367 29.1862793 Z " fill="#010100" transform="translate(429.446533203125,268.309814453125)"/>
<path d="M0 0 C1.38390175 0.62000381 1.38390175 0.62000381 2.79576111 1.25253296 C5.77640972 2.58995237 8.75142593 3.93943217 11.7265625 5.2890625 C13.76414988 6.20568053 15.80215563 7.12136911 17.84057617 8.03613281 C21.84988029 9.8360492 25.85746866 11.63969862 29.86376953 13.44628906 C36.77891448 16.56086999 43.71730424 19.62071076 50.6640625 22.6640625 C51.68097168 23.11056152 52.69788086 23.55706055 53.74560547 24.01708984 C55.94718964 24.98366792 58.14913199 25.94941494 60.3515625 26.9140625 C60.3515625 27.5740625 60.3515625 28.2340625 60.3515625 28.9140625 C-35.56347656 71.54296875 -35.56347656 71.54296875 -38.54734802 72.86906433 C-40.53086618 73.75067416 -42.51431589 74.632438 -44.49769592 75.51435852 C-49.31611966 77.65667527 -54.13561101 79.79650848 -58.95776367 81.93041992 C-67.06325415 85.52005483 -75.15536141 89.12824647 -83.19140625 92.87109375 C-84.45403939 93.45361281 -85.71688837 94.03566429 -86.97998047 94.6171875 C-89.20658525 95.64662912 -91.42645703 96.69084307 -93.63720703 97.75390625 C-94.5961084 98.19476563 -95.55500977 98.635625 -96.54296875 99.08984375 C-97.74723511 99.66085815 -97.74723511 99.66085815 -98.97583008 100.2434082 C-106.11895051 102.03587662 -112.29055862 99.07688774 -118.6328125 96.08203125 C-119.90220169 95.49949081 -119.90220169 95.49949081 -121.19723511 94.90518188 C-123.00306736 94.07525669 -124.80668169 93.24049103 -126.60821533 92.40127563 C-131.30190899 90.21490662 -136.01137718 88.06296544 -140.71875 85.90625 C-142.11817337 85.26327721 -142.11817337 85.26327721 -143.54586792 84.60731506 C-151.73491473 80.85220238 -159.98251759 77.25014838 -168.2734375 73.7265625 C-169.44487305 73.22858154 -170.61630859 72.73060059 -171.82324219 72.2175293 C-174.43009396 71.11264246 -177.03822039 70.01096959 -179.6484375 68.9140625 C-176.55514725 65.55526419 -172.93106299 64.07782231 -168.79296875 62.31640625 C-167.99654465 61.97033829 -167.20012054 61.62427032 -166.37956238 61.26771545 C-164.65107542 60.51734124 -162.92122401 59.77010403 -161.19018555 59.02563477 C-156.50975529 57.01219983 -151.83952625 54.97532175 -147.16796875 52.94140625 C-146.20545197 52.52305511 -145.24293518 52.10470398 -144.25125122 51.67367554 C-134.6778249 47.50655861 -125.1605814 43.21876786 -115.6484375 38.9140625 C-100.45777468 32.0478118 -85.22107037 25.29355995 -69.93798828 18.63549805 C-61.20893438 14.82751904 -52.51633546 10.9552146 -43.8671875 6.96875 C-41.25740177 5.77319521 -38.64717989 4.57859656 -36.03692627 3.38406372 C-34.37802878 2.62011527 -32.72197886 1.84994889 -31.06903076 1.07321167 C-28.78711406 0.00095367 -26.49647934 -1.05013749 -24.203125 -2.09765625 C-23.5383313 -2.41747467 -22.8735376 -2.73729309 -22.18859863 -3.06680298 C-13.95690638 -6.76774632 -7.6199206 -3.48527198 0 0 Z " fill="#F8BF00" transform="translate(349.6484375,100.0859375)"/>
<path d="M0 0 C1.43357094 0.64241386 1.43357094 0.64241386 2.89610291 1.29780579 C5.9436621 2.66550383 8.9855896 4.04522786 12.02734375 5.42578125 C15.03808349 6.78256068 18.04993922 8.13684019 21.06185913 9.49099731 C23.00605813 10.36544967 24.94977146 11.24098271 26.89297485 12.11764526 C34.21245436 15.41621525 41.56558101 18.62276006 48.96484375 21.73828125 C47.30092798 25.06611278 43.59555853 25.83419015 40.3046875 27.23828125 C39.5054335 27.58576416 38.7061795 27.93324707 37.88270569 28.29125977 C36.14215951 29.04736204 34.40035472 29.80057188 32.6574707 30.55126953 C27.95062317 32.57915546 23.2531809 34.62863193 18.5546875 36.67578125 C17.58598724 37.09722412 16.61728699 37.51866699 15.61923218 37.95288086 C6.02974771 42.13108281 -3.50545495 46.42590063 -13.03515625 50.73828125 C-28.1780751 57.5833809 -43.3689559 64.31124138 -58.60498047 70.9465332 C-67.53434976 74.84202144 -76.42006276 78.81523603 -85.26171875 82.90625 C-87.10600346 83.75481018 -88.95040303 84.60312076 -90.79492188 85.45117188 C-94.29999343 87.06294236 -97.79390146 88.69621831 -101.28320312 90.34179688 C-102.86938019 91.07250844 -104.45594807 91.80237248 -106.04296875 92.53125 C-106.75152008 92.87294724 -107.46007141 93.21464447 -108.19009399 93.56669617 C-113.57550229 96.0041865 -117.37148984 96.08835696 -123.05877686 93.99256897 C-125.34667717 93.04528632 -127.59024033 92.0276917 -129.8359375 90.984375 C-130.67118454 90.60523453 -131.50643158 90.22609406 -132.36698914 89.83546448 C-135.03114072 88.6239765 -137.68946216 87.40027735 -140.34765625 86.17578125 C-142.09010903 85.38001414 -143.83294484 84.5850852 -145.57617188 83.79101562 C-148.16749297 82.61027691 -150.75842449 81.42874728 -153.34768677 80.24349976 C-161.87963332 76.33937311 -170.4527152 72.52985476 -179.03515625 68.73828125 C-179.03515625 68.07828125 -179.03515625 67.41828125 -179.03515625 66.73828125 C-157.36893241 56.87814404 -135.67453796 47.09340978 -113.86141968 37.56210327 C-102.00855823 32.38154064 -90.19089345 27.12999556 -78.40359497 21.80194092 C-73.47189719 19.57454343 -68.53576803 17.3569859 -63.59947205 15.13980103 C-59.26549723 13.19276062 -54.9339109 11.24066529 -50.60595703 9.28027344 C-46.09895016 7.24028004 -41.58416523 5.21845 -37.06378174 3.20828247 C-35.35315106 2.44411373 -33.64518844 1.67394069 -31.94012451 0.89743042 C-29.58149584 -0.17565046 -27.21423302 -1.2268595 -24.84375 -2.2734375 C-24.15390518 -2.59325592 -23.46406036 -2.91307434 -22.75331116 -3.24258423 C-14.2425657 -6.93295259 -7.85455167 -3.59161067 0 0 Z " fill="#F8BF00" transform="translate(260.03515625,60.26171875)"/>
<path d="M0 0 C3.6578218 2.03993908 5.66946174 3.50419262 8 7 C8.49566562 10.23173986 7.98201197 12.89909184 7 16 C5.29623413 18.28405762 5.29623413 18.28405762 3.10302734 20.62304688 C2.2878363 21.49574219 1.47264526 22.3684375 0.63275146 23.26757812 C-3.81186312 27.88045643 -8.3010552 32.44470753 -12.8359375 36.96875 C-13.84736418 37.98085249 -14.85864257 38.99310319 -15.86978149 40.00549316 C-17.96739878 42.1045697 -20.066776 44.20186475 -22.16748047 46.29785156 C-24.85744826 48.98207112 -27.54283074 51.67082659 -30.22694969 54.36089325 C-32.30462302 56.44217645 -34.38466735 58.52107685 -36.46544266 60.59925842 C-37.45733602 61.59048636 -38.44849166 62.58245309 -39.43888474 63.57518005 C-40.81669998 64.95553441 -42.19806472 66.33234306 -43.57958984 67.70898438 C-44.36296722 68.49156616 -45.1463446 69.27414795 -45.95346069 70.08044434 C-49.0730168 73.00643826 -51.32828919 74.38165813 -55.5625 74.6875 C-60.26931696 74.52481172 -62.30026906 73.32670854 -65.68359375 70.1015625 C-66.54847412 69.28486084 -67.41335449 68.46815918 -68.30444336 67.62670898 C-69.19397705 66.75989502 -70.08351074 65.89308105 -71 65 C-71.87342041 64.15832275 -72.74684082 63.31664551 -73.64672852 62.44946289 C-76.28554324 59.88254248 -78.89592625 57.2896246 -81.5 54.6875 C-82.39203125 53.80771484 -83.2840625 52.92792969 -84.203125 52.02148438 C-85.47929687 50.74821289 -85.47929687 50.74821289 -86.78125 49.44921875 C-87.9269043 48.30972778 -87.9269043 48.30972778 -89.09570312 47.1472168 C-92.54624791 43.25650636 -93.44626118 40.24549958 -93.328125 34.96875 C-92.80947233 31.85683396 -91.21445226 30.14932131 -89 28 C-85.83350487 26.41675243 -82.42541806 26.35625764 -79 27 C-73.33264684 30.10816377 -69.11154641 34.65798324 -64.625 39.25 C-63.88894531 39.99507813 -63.15289062 40.74015625 -62.39453125 41.5078125 C-60.59169953 43.33405762 -58.79373022 45.16482205 -57 47 C-53.57657838 45.5249596 -51.37756112 43.61069476 -48.76977539 40.96508789 C-47.53312889 39.71853172 -47.53312889 39.71853172 -46.27149963 38.4467926 C-45.38913132 37.54782761 -44.506763 36.64886261 -43.59765625 35.72265625 C-42.20005051 34.31347925 -40.80243907 32.90430785 -39.40449429 31.49546719 C-36.45739955 28.52210727 -33.51938497 25.53977524 -30.57977295 22.559021 C-28.15953465 20.10559999 -25.73733722 17.65419185 -23.30992126 15.20787048 C-21.49105245 13.37395838 -19.67671858 11.53553489 -17.8674469 9.69215393 C-17.03986374 8.85796432 -16.21228058 8.02377472 -15.35961914 7.16430664 C-14.63666153 6.4308754 -13.91370392 5.69744415 -13.1688385 4.94178772 C-8.97656884 1.18839726 -5.71109395 -0.81587056 0 0 Z " fill="#000502" transform="translate(408,320)"/>
</svg>
